<svg id="Layer_1" data-name="Layer 1" xmlns="http://www.w3.org/2000/svg" viewBox="0 0 262.06 261.75"><defs><style>.cls-1{fill:#1a255b;}</style></defs><title>OrbisRebrandLogo</title><path class="cls-1" d="M0,16.2A16.2,16.2,0,1,1,16.21,32.4,16.22,16.22,0,0,1,0,16.2"/><path class="cls-1" d="M138,13.73a124,124,0,1,0,124,124A124.15,124.15,0,0,0,138,13.73Zm84,68.5H186.62C181.38,64.47,173.69,50,164.39,40.51A101.1,101.1,0,0,1,222.06,82.23ZM146.53,238.11q-2,.17-4.12.26V193.25h35.23C170.6,216.13,159.38,232.9,146.53,238.11ZM98.46,193.25h35.23v45.12q-2.07-.09-4.12-.26C116.72,232.9,105.5,216.13,98.46,193.25Zm44-111v-45c14.34,3,27.06,20.3,34.89,45ZM179.78,91a192.57,192.57,0,0,1,5.61,42.42h-43V91ZM133.68,37.21v45H98.8C106.62,57.51,119.34,40.17,133.68,37.21Zm0,53.75v42.42h-43A192.57,192.57,0,0,1,96.32,91ZM82,133.37H37.42A100,100,0,0,1,48.86,91H87.17A204.4,204.4,0,0,0,82,133.37ZM37.42,142.1H82a205.89,205.89,0,0,0,5,42.41H48.86A100,100,0,0,1,37.42,142.1Zm53.28,0h43v42.41H96A193.76,193.76,0,0,1,90.69,142.1Zm51.72,42.41V142.1h43a193.76,193.76,0,0,1-5.35,42.41Zm51.73-42.41h44.54a100,100,0,0,1-11.44,42.41H189.19A205.89,205.89,0,0,0,194.14,142.1Zm44.54-8.73H194.12A204.4,204.4,0,0,0,188.93,91h38.31A100,100,0,0,1,238.68,133.37Zm-127-92.87c-9.3,9.51-17,24-22.22,41.72H54A101.1,101.1,0,0,1,111.71,40.51ZM54,193.25H89.16c5,17.35,12.28,31.63,21.14,41.33A101.13,101.13,0,0,1,54,193.25ZM165.8,234.58c8.86-9.7,16.16-24,21.14-41.33h35.13A101.13,101.13,0,0,1,165.8,234.58Z"/></svg>